<svg xmlns="http://www.w3.org/2000/svg" version="1.1" viewBox="0 0 421.086 89.897"><defs><style>.cls-1{fill:#000;stroke-width:0}</style></defs><g id="Layer_1" data-name="Layer 1"><path d="M100.47191,11.87948l-1.9413,7.0196c-.10277.37163-.49074.58636-.86022.47612l-32.56441-9.71607c-.21659-.06462-.4511-.0188-.62742.12261l-32.25064,25.86279c-.09415.0755-.2065.12493-.32579.14331l-19.18897,2.95717c-.35531.05476-.60863.37372-.58152.73219l.08338,1.10265c.02663.35219.3155.62706.66857.63619l22.28879.57618.25422.00712,16.46922-8.7974c.23057-.12316.511-.10509.72385.04664l11.66782,8.31729c.18297.13043.29076.34195.28875.56663l-.09843,11.03609c-.00127.14283.04192.28252.12359.3997l16.41303,23.55049c.12871.18468.3396.29476.56471.29476h5.19569c.51834,0,.85069-.55125.60872-1.00965l-11.69823-22.16122c-.1144-.21672-.10495-.47793.02482-.68581l6.09931-9.77079c.0664-.10637.16059-.19258.27241-.24932l21.80607-11.06554c.22156-.11243.48651-.09674.69325.04106l6.23133,4.15349c.11306.07536.24589.11557.38177.11557h5.66149c.54825,0,.87646-.60971.57456-1.06735l-15.72045-23.83006c-.32547-.49337-1.08044-.37411-1.23798.19556Z" class="cls-1"/></g><g id="Layer_2" data-name="Layer 2"><g><path d="M282.32791,54.32965h-13.93142c-.54872,0-.99354-.44482-.99354-.99354v-16.77562c0-.54872.44482-.99354.99354-.99354h13.93138c.54872,0,.99354-.44482.99354-.99354v-6.7971c0-.54872-.44482-.99354-.99354-.99354h-17.32342c-.72032,0-1.41113.28614-1.92048.79548l-4.02367,4.02361c-.50937.50936-.79553,1.20021-.79553,1.92056v22.85171c0,.72041.28618,1.41131.7956,1.92072l4.0235,4.02344c.50937.50937,1.20023.79552,1.92058.79552h17.32346c.54869,0,.9935-.44481.9935-.9935v-6.79718c0-.54869-.44481-.9935-.9935-.9935Z" class="cls-1"/><path d="M398.8927,34.27753v-6.50125c0-.54869-.44481-.9935-.9935-.9935h-25.81964c-.54869,0-.9935.44481-.9935.9935v34.34405c0,.54869.44481.9935.9935.9935h25.81964c.54869,0,.9935-.44481.9935-.9935v-6.50125c0-.54869-.44481-.9935-.9935-.9935h-17.40596c-.14856,0-.269-.12044-.269-.269v-5.55334c0-.14856.12044-.269.269-.269h14.75215c.54869,0,.9935-.44481.9935-.9935v-5.18487c0-.54869-.44481-.9935-.9935-.9935h-14.75215c-.14856,0-.269-.12044-.269-.269v-5.55334c0-.14856.12044-.269.269-.269h17.40596c.54869,0,.9935-.44481.9935-.9935Z" class="cls-1"/><path d="M208.7182,31.60187l-4.0235-4.0235c-.5094-.5094-1.20026-.79559-1.92065-.79559h-17.0108c-.72034,0-1.41125.28619-1.92059.79559l-4.02356,4.0235c-.50934.5094-.79553,1.20026-.79553,1.92059v22.85168c0,.7204.28619,1.41125.79553,1.92065l4.02356,4.0235c.50934.5094,1.20026.79553,1.92059.79553h17.0108c.7204,0,1.41125-.28613,1.92065-.79553l4.0235-4.0235c.5094-.5094.79559-1.20026.79559-1.92065v-22.85168c0-.72034-.28619-1.41119-.79559-1.92059ZM200.37561,54.32965h-12.21387v-18.7627h12.21387v18.7627Z" class="cls-1"/><path d="M248.37445,31.60187l-4.0235-4.0235c-.5094-.5094-1.20026-.79559-1.92065-.79559h-17.0108c-.72034,0-1.41125.28619-1.92059.79559l-4.02356,4.0235c-.50934.5094-.79553,1.20026-.79553,1.92059v22.85168c0,.7204.28619,1.41125.79553,1.92065l4.02356,4.0235c.50934.5094,1.20026.79553,1.92059.79553h17.0108c.7204,0,1.41125-.28613,1.92065-.79553l4.0235-4.0235c.5094-.5094.79559-1.20026.79559-1.92065v-22.85168c0-.72034-.28619-1.41119-.79559-1.92059ZM240.03186,54.32965h-12.21387v-18.7627h12.21387v18.7627Z" class="cls-1"/><path d="M321.61078,31.60187l-4.0235-4.0235c-.5094-.5094-1.20026-.79559-1.92065-.79559h-17.0108c-.72034,0-1.41125.28619-1.92059.79559l-4.02356,4.0235c-.50934.5094-.79553,1.20026-.79553,1.92059v22.85168c0,.7204.28619,1.41125.79553,1.92065l4.02356,4.0235c.50934.5094,1.20026.79553,1.92059.79553h17.0108c.7204,0,1.41125-.28613,1.92065-.79553l4.0235-4.0235c.5094-.5094.79559-1.20026.79559-1.92065v-22.85168c0-.72034-.28619-1.41119-.79559-1.92059ZM313.26819,54.32965h-12.21387v-18.7627h12.21387v18.7627Z" class="cls-1"/><path d="M361.19584,31.60197l-4.0236-4.0236c-.50941-.50941-1.20032-.79559-1.92073-.79559h-22.75691c-.5487,0-.9935.43783-.9935.98652,0,5.17848.00001,29.17954.00003,34.35801,0,.54869.44481.98652.9935.98652h22.75703c.72036,0,1.41121-.28616,1.92058-.79553l4.0235-4.0235c.50941-.50941.79559-1.20032.79559-1.92073v-22.85161c0-.72033-.28615-1.41115-.7955-1.9205ZM352.85315,54.32965h-12.21387v-18.7627h12.21387v18.7627Z" class="cls-1"/><path d="M171.23896,62.12848l-6.45563-10.55371,4.35004-4.29626c.50934-.50934.79553-1.2002.79553-1.92059v-11.83533c0-.7204-.28619-1.41132-.79559-1.92072l-4.02356-4.02356c-.5094-.5094-1.20026-.79553-1.92059-.79553h-22.67206c-.54871,0-.99347.44476-.99347.99347v34.34406c0,.54871.44476.99353.99353.99353h7.15112c.54871,0,.99353-.44482.99353-.99353v-9.71216c0-.14856.12042-.26898.26898-.26898h5.69489c.33026,0,.63574.17529.80231.46051l5.8222,10.02167c.1781.30499.50476.49249.85797.49249h8.5722c.50568,0,.8183-.55145.55859-.98535ZM160.88489,44.09039h-12.57812v-8.83496h12.57812v8.83496Z" class="cls-1"/></g></g><metadata/></svg>